%TF.GenerationSoftware,KiCad,Pcbnew,10.0.3-10.0.3~ubuntu26.04.1*%
%TF.CreationDate,2026-06-04T12:36:10+05:30*%
%TF.ProjectId,555_blinker,3535355f-626c-4696-9e6b-65722e6b6963,rev?*%
%TF.SameCoordinates,Original*%
%TF.FileFunction,Legend,Top*%
%TF.FilePolarity,Positive*%
%FSLAX46Y46*%
G04 Gerber Fmt 4.6, Leading zero omitted, Abs format (unit mm)*
G04 Created by KiCad (PCBNEW 10.0.3-10.0.3~ubuntu26.04.1) date 2026-06-04 12:36:10*
%MOMM*%
%LPD*%
G01*
G04 APERTURE LIST*
G04 Aperture macros list*
%AMRoundRect*
0 Rectangle with rounded corners*
0 $1 Rounding radius*
0 $2 $3 $4 $5 $6 $7 $8 $9 X,Y pos of 4 corners*
0 Add a 4 corners polygon primitive as box body*
4,1,4,$2,$3,$4,$5,$6,$7,$8,$9,$2,$3,0*
0 Add four circle primitives for the rounded corners*
1,1,$1+$1,$2,$3*
1,1,$1+$1,$4,$5*
1,1,$1+$1,$6,$7*
1,1,$1+$1,$8,$9*
0 Add four rect primitives between the rounded corners*
20,1,$1+$1,$2,$3,$4,$5,0*
20,1,$1+$1,$4,$5,$6,$7,0*
20,1,$1+$1,$6,$7,$8,$9,0*
20,1,$1+$1,$8,$9,$2,$3,0*%
G04 Aperture macros list end*
%ADD10C,0.150000*%
%ADD11C,0.120000*%
%ADD12C,1.600000*%
%ADD13RoundRect,0.250000X0.550000X-0.550000X0.550000X0.550000X-0.550000X0.550000X-0.550000X-0.550000X0*%
%ADD14C,1.400000*%
%ADD15R,1.700000X1.700000*%
%ADD16C,1.700000*%
%ADD17C,3.200000*%
%ADD18RoundRect,0.250000X0.550000X0.550000X-0.550000X0.550000X-0.550000X-0.550000X0.550000X-0.550000X0*%
%ADD19R,1.800000X1.800000*%
%ADD20C,1.800000*%
G04 APERTURE END LIST*
D10*
X55833333Y-67359580D02*
X55785714Y-67407200D01*
X55785714Y-67407200D02*
X55642857Y-67454819D01*
X55642857Y-67454819D02*
X55547619Y-67454819D01*
X55547619Y-67454819D02*
X55404762Y-67407200D01*
X55404762Y-67407200D02*
X55309524Y-67311961D01*
X55309524Y-67311961D02*
X55261905Y-67216723D01*
X55261905Y-67216723D02*
X55214286Y-67026247D01*
X55214286Y-67026247D02*
X55214286Y-66883390D01*
X55214286Y-66883390D02*
X55261905Y-66692914D01*
X55261905Y-66692914D02*
X55309524Y-66597676D01*
X55309524Y-66597676D02*
X55404762Y-66502438D01*
X55404762Y-66502438D02*
X55547619Y-66454819D01*
X55547619Y-66454819D02*
X55642857Y-66454819D01*
X55642857Y-66454819D02*
X55785714Y-66502438D01*
X55785714Y-66502438D02*
X55833333Y-66550057D01*
X56785714Y-67454819D02*
X56214286Y-67454819D01*
X56500000Y-67454819D02*
X56500000Y-66454819D01*
X56500000Y-66454819D02*
X56404762Y-66597676D01*
X56404762Y-66597676D02*
X56309524Y-66692914D01*
X56309524Y-66692914D02*
X56214286Y-66740533D01*
X55833333Y-72454819D02*
X55500000Y-71978628D01*
X55261905Y-72454819D02*
X55261905Y-71454819D01*
X55261905Y-71454819D02*
X55642857Y-71454819D01*
X55642857Y-71454819D02*
X55738095Y-71502438D01*
X55738095Y-71502438D02*
X55785714Y-71550057D01*
X55785714Y-71550057D02*
X55833333Y-71645295D01*
X55833333Y-71645295D02*
X55833333Y-71788152D01*
X55833333Y-71788152D02*
X55785714Y-71883390D01*
X55785714Y-71883390D02*
X55738095Y-71931009D01*
X55738095Y-71931009D02*
X55642857Y-71978628D01*
X55642857Y-71978628D02*
X55261905Y-71978628D01*
X56214286Y-71550057D02*
X56261905Y-71502438D01*
X56261905Y-71502438D02*
X56357143Y-71454819D01*
X56357143Y-71454819D02*
X56595238Y-71454819D01*
X56595238Y-71454819D02*
X56690476Y-71502438D01*
X56690476Y-71502438D02*
X56738095Y-71550057D01*
X56738095Y-71550057D02*
X56785714Y-71645295D01*
X56785714Y-71645295D02*
X56785714Y-71740533D01*
X56785714Y-71740533D02*
X56738095Y-71883390D01*
X56738095Y-71883390D02*
X56166667Y-72454819D01*
X56166667Y-72454819D02*
X56785714Y-72454819D01*
X64833333Y-61859580D02*
X64785714Y-61907200D01*
X64785714Y-61907200D02*
X64642857Y-61954819D01*
X64642857Y-61954819D02*
X64547619Y-61954819D01*
X64547619Y-61954819D02*
X64404762Y-61907200D01*
X64404762Y-61907200D02*
X64309524Y-61811961D01*
X64309524Y-61811961D02*
X64261905Y-61716723D01*
X64261905Y-61716723D02*
X64214286Y-61526247D01*
X64214286Y-61526247D02*
X64214286Y-61383390D01*
X64214286Y-61383390D02*
X64261905Y-61192914D01*
X64261905Y-61192914D02*
X64309524Y-61097676D01*
X64309524Y-61097676D02*
X64404762Y-61002438D01*
X64404762Y-61002438D02*
X64547619Y-60954819D01*
X64547619Y-60954819D02*
X64642857Y-60954819D01*
X64642857Y-60954819D02*
X64785714Y-61002438D01*
X64785714Y-61002438D02*
X64833333Y-61050057D01*
X65214286Y-61050057D02*
X65261905Y-61002438D01*
X65261905Y-61002438D02*
X65357143Y-60954819D01*
X65357143Y-60954819D02*
X65595238Y-60954819D01*
X65595238Y-60954819D02*
X65690476Y-61002438D01*
X65690476Y-61002438D02*
X65738095Y-61050057D01*
X65738095Y-61050057D02*
X65785714Y-61145295D01*
X65785714Y-61145295D02*
X65785714Y-61240533D01*
X65785714Y-61240533D02*
X65738095Y-61383390D01*
X65738095Y-61383390D02*
X65166667Y-61954819D01*
X65166667Y-61954819D02*
X65785714Y-61954819D01*
X77666666Y-83454819D02*
X77666666Y-84169104D01*
X77666666Y-84169104D02*
X77619047Y-84311961D01*
X77619047Y-84311961D02*
X77523809Y-84407200D01*
X77523809Y-84407200D02*
X77380952Y-84454819D01*
X77380952Y-84454819D02*
X77285714Y-84454819D01*
X78666666Y-84454819D02*
X78095238Y-84454819D01*
X78380952Y-84454819D02*
X78380952Y-83454819D01*
X78380952Y-83454819D02*
X78285714Y-83597676D01*
X78285714Y-83597676D02*
X78190476Y-83692914D01*
X78190476Y-83692914D02*
X78095238Y-83740533D01*
X95238095Y-81954819D02*
X95238095Y-80954819D01*
X95238095Y-81431009D02*
X95809523Y-81431009D01*
X95809523Y-81954819D02*
X95809523Y-80954819D01*
X96714285Y-81288152D02*
X96714285Y-81954819D01*
X96476190Y-80907200D02*
X96238095Y-81621485D01*
X96238095Y-81621485D02*
X96857142Y-81621485D01*
X95238095Y-58954819D02*
X95238095Y-57954819D01*
X95238095Y-58431009D02*
X95809523Y-58431009D01*
X95809523Y-58954819D02*
X95809523Y-57954819D01*
X96190476Y-57954819D02*
X96809523Y-57954819D01*
X96809523Y-57954819D02*
X96476190Y-58335771D01*
X96476190Y-58335771D02*
X96619047Y-58335771D01*
X96619047Y-58335771D02*
X96714285Y-58383390D01*
X96714285Y-58383390D02*
X96761904Y-58431009D01*
X96761904Y-58431009D02*
X96809523Y-58526247D01*
X96809523Y-58526247D02*
X96809523Y-58764342D01*
X96809523Y-58764342D02*
X96761904Y-58859580D01*
X96761904Y-58859580D02*
X96714285Y-58907200D01*
X96714285Y-58907200D02*
X96619047Y-58954819D01*
X96619047Y-58954819D02*
X96333333Y-58954819D01*
X96333333Y-58954819D02*
X96238095Y-58907200D01*
X96238095Y-58907200D02*
X96190476Y-58859580D01*
X53238095Y-81954819D02*
X53238095Y-80954819D01*
X53238095Y-81431009D02*
X53809523Y-81431009D01*
X53809523Y-81954819D02*
X53809523Y-80954819D01*
X54238095Y-81050057D02*
X54285714Y-81002438D01*
X54285714Y-81002438D02*
X54380952Y-80954819D01*
X54380952Y-80954819D02*
X54619047Y-80954819D01*
X54619047Y-80954819D02*
X54714285Y-81002438D01*
X54714285Y-81002438D02*
X54761904Y-81050057D01*
X54761904Y-81050057D02*
X54809523Y-81145295D01*
X54809523Y-81145295D02*
X54809523Y-81240533D01*
X54809523Y-81240533D02*
X54761904Y-81383390D01*
X54761904Y-81383390D02*
X54190476Y-81954819D01*
X54190476Y-81954819D02*
X54809523Y-81954819D01*
X53238095Y-58954819D02*
X53238095Y-57954819D01*
X53238095Y-58431009D02*
X53809523Y-58431009D01*
X53809523Y-58954819D02*
X53809523Y-57954819D01*
X54809523Y-58954819D02*
X54238095Y-58954819D01*
X54523809Y-58954819D02*
X54523809Y-57954819D01*
X54523809Y-57954819D02*
X54428571Y-58097676D01*
X54428571Y-58097676D02*
X54333333Y-58192914D01*
X54333333Y-58192914D02*
X54238095Y-58240533D01*
X76238095Y-76954819D02*
X76238095Y-77764342D01*
X76238095Y-77764342D02*
X76285714Y-77859580D01*
X76285714Y-77859580D02*
X76333333Y-77907200D01*
X76333333Y-77907200D02*
X76428571Y-77954819D01*
X76428571Y-77954819D02*
X76619047Y-77954819D01*
X76619047Y-77954819D02*
X76714285Y-77907200D01*
X76714285Y-77907200D02*
X76761904Y-77859580D01*
X76761904Y-77859580D02*
X76809523Y-77764342D01*
X76809523Y-77764342D02*
X76809523Y-76954819D01*
X77809523Y-77954819D02*
X77238095Y-77954819D01*
X77523809Y-77954819D02*
X77523809Y-76954819D01*
X77523809Y-76954819D02*
X77428571Y-77097676D01*
X77428571Y-77097676D02*
X77333333Y-77192914D01*
X77333333Y-77192914D02*
X77238095Y-77240533D01*
X89833333Y-69954819D02*
X89500000Y-69478628D01*
X89261905Y-69954819D02*
X89261905Y-68954819D01*
X89261905Y-68954819D02*
X89642857Y-68954819D01*
X89642857Y-68954819D02*
X89738095Y-69002438D01*
X89738095Y-69002438D02*
X89785714Y-69050057D01*
X89785714Y-69050057D02*
X89833333Y-69145295D01*
X89833333Y-69145295D02*
X89833333Y-69288152D01*
X89833333Y-69288152D02*
X89785714Y-69383390D01*
X89785714Y-69383390D02*
X89738095Y-69431009D01*
X89738095Y-69431009D02*
X89642857Y-69478628D01*
X89642857Y-69478628D02*
X89261905Y-69478628D01*
X90166667Y-68954819D02*
X90785714Y-68954819D01*
X90785714Y-68954819D02*
X90452381Y-69335771D01*
X90452381Y-69335771D02*
X90595238Y-69335771D01*
X90595238Y-69335771D02*
X90690476Y-69383390D01*
X90690476Y-69383390D02*
X90738095Y-69431009D01*
X90738095Y-69431009D02*
X90785714Y-69526247D01*
X90785714Y-69526247D02*
X90785714Y-69764342D01*
X90785714Y-69764342D02*
X90738095Y-69859580D01*
X90738095Y-69859580D02*
X90690476Y-69907200D01*
X90690476Y-69907200D02*
X90595238Y-69954819D01*
X90595238Y-69954819D02*
X90309524Y-69954819D01*
X90309524Y-69954819D02*
X90214286Y-69907200D01*
X90214286Y-69907200D02*
X90166667Y-69859580D01*
X55833333Y-75454819D02*
X55500000Y-74978628D01*
X55261905Y-75454819D02*
X55261905Y-74454819D01*
X55261905Y-74454819D02*
X55642857Y-74454819D01*
X55642857Y-74454819D02*
X55738095Y-74502438D01*
X55738095Y-74502438D02*
X55785714Y-74550057D01*
X55785714Y-74550057D02*
X55833333Y-74645295D01*
X55833333Y-74645295D02*
X55833333Y-74788152D01*
X55833333Y-74788152D02*
X55785714Y-74883390D01*
X55785714Y-74883390D02*
X55738095Y-74931009D01*
X55738095Y-74931009D02*
X55642857Y-74978628D01*
X55642857Y-74978628D02*
X55261905Y-74978628D01*
X56785714Y-75454819D02*
X56214286Y-75454819D01*
X56500000Y-75454819D02*
X56500000Y-74454819D01*
X56500000Y-74454819D02*
X56404762Y-74597676D01*
X56404762Y-74597676D02*
X56309524Y-74692914D01*
X56309524Y-74692914D02*
X56214286Y-74740533D01*
X84761905Y-78454819D02*
X84761905Y-77454819D01*
X84761905Y-77454819D02*
X85000000Y-77454819D01*
X85000000Y-77454819D02*
X85142857Y-77502438D01*
X85142857Y-77502438D02*
X85238095Y-77597676D01*
X85238095Y-77597676D02*
X85285714Y-77692914D01*
X85285714Y-77692914D02*
X85333333Y-77883390D01*
X85333333Y-77883390D02*
X85333333Y-78026247D01*
X85333333Y-78026247D02*
X85285714Y-78216723D01*
X85285714Y-78216723D02*
X85238095Y-78311961D01*
X85238095Y-78311961D02*
X85142857Y-78407200D01*
X85142857Y-78407200D02*
X85000000Y-78454819D01*
X85000000Y-78454819D02*
X84761905Y-78454819D01*
X86285714Y-78454819D02*
X85714286Y-78454819D01*
X86000000Y-78454819D02*
X86000000Y-77454819D01*
X86000000Y-77454819D02*
X85904762Y-77597676D01*
X85904762Y-77597676D02*
X85809524Y-77692914D01*
X85809524Y-77692914D02*
X85714286Y-77740533D01*
%TO.C,C1*%
D11*
X62620000Y-67455113D02*
G75*
G02*
X57380000Y-67455113I-2620000J0D01*
G01*
X57380000Y-67455113D02*
G75*
G02*
X62620000Y-67455113I2620000J0D01*
G01*
X59717000Y-64855113D02*
X60283000Y-64855113D01*
X59483000Y-64895113D02*
X60517000Y-64895113D01*
X59323000Y-64935113D02*
X60677000Y-64935113D01*
X59195000Y-64975113D02*
X60805000Y-64975113D01*
X59086000Y-65015113D02*
X60914000Y-65015113D01*
X58989000Y-65055113D02*
X61011000Y-65055113D01*
X58902000Y-65095113D02*
X61098000Y-65095113D01*
X58823000Y-65135113D02*
X61177000Y-65135113D01*
X61040000Y-65175113D02*
X61251000Y-65175113D01*
X58749000Y-65175113D02*
X58960000Y-65175113D01*
X61040000Y-65215113D02*
X61319000Y-65215113D01*
X58681000Y-65215113D02*
X58960000Y-65215113D01*
X61040000Y-65255113D02*
X61383000Y-65255113D01*
X58617000Y-65255113D02*
X58960000Y-65255113D01*
X61040000Y-65295113D02*
X61443000Y-65295113D01*
X58557000Y-65295113D02*
X58960000Y-65295113D01*
X61040000Y-65335113D02*
X61499000Y-65335113D01*
X58501000Y-65335113D02*
X58960000Y-65335113D01*
X61040000Y-65375113D02*
X61553000Y-65375113D01*
X58447000Y-65375113D02*
X58960000Y-65375113D01*
X61040000Y-65415113D02*
X61604000Y-65415113D01*
X58396000Y-65415113D02*
X58960000Y-65415113D01*
X61040000Y-65455113D02*
X61652000Y-65455113D01*
X58348000Y-65455113D02*
X58960000Y-65455113D01*
X61040000Y-65495113D02*
X61699000Y-65495113D01*
X58301000Y-65495113D02*
X58960000Y-65495113D01*
X61040000Y-65535113D02*
X61743000Y-65535113D01*
X58257000Y-65535113D02*
X58960000Y-65535113D01*
X61040000Y-65575113D02*
X61785000Y-65575113D01*
X58215000Y-65575113D02*
X58960000Y-65575113D01*
X61040000Y-65615113D02*
X61825000Y-65615113D01*
X58175000Y-65615113D02*
X58960000Y-65615113D01*
X61040000Y-65655113D02*
X61864000Y-65655113D01*
X58136000Y-65655113D02*
X58960000Y-65655113D01*
X61040000Y-65695113D02*
X61901000Y-65695113D01*
X58099000Y-65695113D02*
X58960000Y-65695113D01*
X61040000Y-65735113D02*
X61936000Y-65735113D01*
X58064000Y-65735113D02*
X58960000Y-65735113D01*
X61040000Y-65775113D02*
X61970000Y-65775113D01*
X58030000Y-65775113D02*
X58960000Y-65775113D01*
X61040000Y-65815113D02*
X62003000Y-65815113D01*
X57997000Y-65815113D02*
X58960000Y-65815113D01*
X61040000Y-65855113D02*
X62035000Y-65855113D01*
X57965000Y-65855113D02*
X58960000Y-65855113D01*
X61040000Y-65895113D02*
X62065000Y-65895113D01*
X57935000Y-65895113D02*
X58960000Y-65895113D01*
X61040000Y-65935113D02*
X62094000Y-65935113D01*
X57906000Y-65935113D02*
X58960000Y-65935113D01*
X61040000Y-65975113D02*
X62122000Y-65975113D01*
X57878000Y-65975113D02*
X58960000Y-65975113D01*
X61040000Y-66015113D02*
X62149000Y-66015113D01*
X57851000Y-66015113D02*
X58960000Y-66015113D01*
X61040000Y-66055113D02*
X62175000Y-66055113D01*
X57825000Y-66055113D02*
X58960000Y-66055113D01*
X61040000Y-66095113D02*
X62199000Y-66095113D01*
X57801000Y-66095113D02*
X58960000Y-66095113D01*
X61040000Y-66135113D02*
X62223000Y-66135113D01*
X57777000Y-66135113D02*
X58960000Y-66135113D01*
X61040000Y-66175113D02*
X62246000Y-66175113D01*
X57754000Y-66175113D02*
X58960000Y-66175113D01*
X61040000Y-66215113D02*
X62268000Y-66215113D01*
X57732000Y-66215113D02*
X58960000Y-66215113D01*
X61040000Y-66255113D02*
X62289000Y-66255113D01*
X57711000Y-66255113D02*
X58960000Y-66255113D01*
X61040000Y-66295113D02*
X62309000Y-66295113D01*
X57691000Y-66295113D02*
X58960000Y-66295113D01*
X61040000Y-66335113D02*
X62329000Y-66335113D01*
X57671000Y-66335113D02*
X58960000Y-66335113D01*
X61040000Y-66375113D02*
X62347000Y-66375113D01*
X57653000Y-66375113D02*
X58960000Y-66375113D01*
X61040000Y-66415113D02*
X62365000Y-66415113D01*
X57635000Y-66415113D02*
X58960000Y-66415113D01*
X61040000Y-66455113D02*
X62382000Y-66455113D01*
X57618000Y-66455113D02*
X58960000Y-66455113D01*
X61040000Y-66495113D02*
X62398000Y-66495113D01*
X57602000Y-66495113D02*
X58960000Y-66495113D01*
X61040000Y-66535113D02*
X62413000Y-66535113D01*
X57587000Y-66535113D02*
X58960000Y-66535113D01*
X61040000Y-66575113D02*
X62428000Y-66575113D01*
X57572000Y-66575113D02*
X58960000Y-66575113D01*
X61040000Y-66615113D02*
X62442000Y-66615113D01*
X57558000Y-66615113D02*
X58960000Y-66615113D01*
X61040000Y-66655113D02*
X62455000Y-66655113D01*
X57545000Y-66655113D02*
X58960000Y-66655113D01*
X61040000Y-66695113D02*
X62467000Y-66695113D01*
X57533000Y-66695113D02*
X58960000Y-66695113D01*
X61040000Y-66735113D02*
X62479000Y-66735113D01*
X57521000Y-66735113D02*
X58960000Y-66735113D01*
X61040000Y-66775113D02*
X62490000Y-66775113D01*
X57510000Y-66775113D02*
X58960000Y-66775113D01*
X61040000Y-66815113D02*
X62501000Y-66815113D01*
X57499000Y-66815113D02*
X58960000Y-66815113D01*
X61040000Y-66855113D02*
X62510000Y-66855113D01*
X57490000Y-66855113D02*
X58960000Y-66855113D01*
X61040000Y-66895113D02*
X62519000Y-66895113D01*
X57481000Y-66895113D02*
X58960000Y-66895113D01*
X61040000Y-66935113D02*
X62528000Y-66935113D01*
X57472000Y-66935113D02*
X58960000Y-66935113D01*
X61040000Y-66975113D02*
X62536000Y-66975113D01*
X57464000Y-66975113D02*
X58960000Y-66975113D01*
X61040000Y-67015113D02*
X62543000Y-67015113D01*
X57457000Y-67015113D02*
X58960000Y-67015113D01*
X61040000Y-67055113D02*
X62549000Y-67055113D01*
X57451000Y-67055113D02*
X58960000Y-67055113D01*
X61040000Y-67095113D02*
X62555000Y-67095113D01*
X57445000Y-67095113D02*
X58960000Y-67095113D01*
X61040000Y-67135113D02*
X62560000Y-67135113D01*
X57440000Y-67135113D02*
X58960000Y-67135113D01*
X61040000Y-67175113D02*
X62565000Y-67175113D01*
X57435000Y-67175113D02*
X58960000Y-67175113D01*
X61040000Y-67215113D02*
X62569000Y-67215113D01*
X57431000Y-67215113D02*
X58960000Y-67215113D01*
X57428000Y-67255113D02*
X62572000Y-67255113D01*
X57425000Y-67295113D02*
X62575000Y-67295113D01*
X57423000Y-67335113D02*
X62577000Y-67335113D01*
X57421000Y-67375113D02*
X62579000Y-67375113D01*
X57420000Y-67415113D02*
X62580000Y-67415113D01*
X57420000Y-67455113D02*
X62580000Y-67455113D01*
X58275000Y-70009888D02*
X58775000Y-70009888D01*
X58525000Y-70259888D02*
X58525000Y-69759888D01*
%TO.C,R2*%
X60270000Y-71080000D02*
X64110000Y-71080000D01*
X64110000Y-72920000D01*
X60270000Y-72920000D01*
X60270000Y-71080000D01*
X65060000Y-72000000D02*
X64110000Y-72000000D01*
X59320000Y-72000000D02*
X60270000Y-72000000D01*
%TO.C,C2*%
X66370000Y-63880000D02*
X66370000Y-69120000D01*
X66033000Y-63880000D02*
X66370000Y-63880000D01*
X63630000Y-63880000D02*
X63967000Y-63880000D01*
X66370000Y-69120000D02*
X66033000Y-69120000D01*
X63967000Y-69120000D02*
X63630000Y-69120000D01*
X63630000Y-69120000D02*
X63630000Y-63880000D01*
%TO.C,J1*%
X70345000Y-85380000D02*
X70345000Y-84000000D01*
X71725000Y-85380000D02*
X70345000Y-85380000D01*
X72995000Y-85380000D02*
X75645000Y-85380000D01*
X72995000Y-85380000D02*
X72995000Y-82620000D01*
X75645000Y-85380000D02*
X75645000Y-82620000D01*
X72995000Y-82620000D02*
X75645000Y-82620000D01*
%TO.C,U1*%
X75460000Y-75950000D02*
X75460000Y-65670000D01*
X75460000Y-65670000D02*
X70160000Y-65670000D01*
X73810000Y-75950000D02*
X75460000Y-75950000D01*
X70160000Y-75950000D02*
X71810000Y-75950000D01*
X70160000Y-65670000D02*
X70160000Y-75950000D01*
X71810000Y-75950000D02*
G75*
G02*
X73810000Y-75950000I1000000J0D01*
G01*
%TO.C,R3*%
X80630000Y-69500000D02*
X81580000Y-69500000D01*
X86370000Y-69500000D02*
X85420000Y-69500000D01*
X81580000Y-68580000D02*
X85420000Y-68580000D01*
X85420000Y-70420000D01*
X81580000Y-70420000D01*
X81580000Y-68580000D01*
%TO.C,R1*%
X59440000Y-75000000D02*
X60390000Y-75000000D01*
X65180000Y-75000000D02*
X64230000Y-75000000D01*
X60390000Y-74080000D02*
X64230000Y-74080000D01*
X64230000Y-75920000D01*
X60390000Y-75920000D01*
X60390000Y-74080000D01*
%TO.C,D1*%
X83455000Y-76830000D02*
X86545000Y-76830000D01*
X83455170Y-76830000D02*
G75*
G02*
X85000000Y-71280000I1544830J2560000D01*
G01*
X85000000Y-71280000D02*
G75*
G02*
X86544830Y-76830000I0J-2990000D01*
G01*
X87500000Y-74270000D02*
G75*
G02*
X82500000Y-74270000I-2500000J0D01*
G01*
X82500000Y-74270000D02*
G75*
G02*
X87500000Y-74270000I2500000J0D01*
G01*
%TD*%
%LPC*%
D12*
%TO.C,C1*%
X60000000Y-66205113D03*
D13*
X60000000Y-68705113D03*
%TD*%
D14*
%TO.C,R2*%
X66000000Y-72000000D03*
X58380000Y-72000000D03*
%TD*%
D12*
%TO.C,C2*%
X65000000Y-64000000D03*
X65000000Y-69000000D03*
%TD*%
D15*
%TO.C,J1*%
X71725000Y-84000000D03*
D16*
X74265000Y-84000000D03*
%TD*%
D17*
%TO.C,H4*%
X96000000Y-86000000D03*
%TD*%
%TO.C,H3*%
X96000000Y-54000000D03*
%TD*%
%TO.C,H2*%
X54000000Y-86000000D03*
%TD*%
%TO.C,H1*%
X54000000Y-54000000D03*
%TD*%
D18*
%TO.C,U1*%
X76620000Y-74620000D03*
D12*
X76620000Y-72080000D03*
X76620000Y-69540000D03*
X76620000Y-67000000D03*
X69000000Y-67000000D03*
X69000000Y-69540000D03*
X69000000Y-72080000D03*
X69000000Y-74620000D03*
%TD*%
D14*
%TO.C,R3*%
X79690000Y-69500000D03*
X87310000Y-69500000D03*
%TD*%
%TO.C,R1*%
X58500000Y-75000000D03*
X66120000Y-75000000D03*
%TD*%
D19*
%TO.C,D1*%
X85000000Y-75540000D03*
D20*
X85000000Y-73000000D03*
%TD*%
%LPD*%
M02*
